<?xml version="1.0" encoding="UTF-8" standalone="no"?>
<svg width="164px" height="26px" viewBox="0 0 164 26" version="1.1" xmlns="http://www.w3.org/2000/svg" xmlns:xlink="http://www.w3.org/1999/xlink">
    <!-- Generator: Sketch 42 (36781) - http://www.bohemiancoding.com/sketch -->
    <title>Stars</title>
    <desc>Created with Sketch.</desc>
    <defs></defs>
    <g id="Shamazon" stroke="none" stroke-width="1" fill="none" fill-rule="evenodd">
        <g id="1.-Shazam-main" transform="translate(-723.000000, -238.000000)">
            <g id="Reviews" transform="translate(604.000000, 235.000000)">
                <g id="Group">
                    <g id="Stars" transform="translate(119.000000, 3.000000)">
                        <polygon id="Star" fill="#FFBA08" points="13.3147912 21 5.0857977 25.3262379 6.65739561 16.163119 1.14241949e-13 9.67376208 9.20029446 8.33688104 13.3147912 0 17.429288 8.33688104 26.6295825 9.67376208 19.9721868 16.163119 21.5437848 25.3262379"></polygon>
                        <polygon id="Star-Copy" fill="#FFBA08" points="47.5647912 21 39.3357977 25.3262379 40.9073956 16.163119 34.25 9.67376208 43.4502945 8.33688104 47.5647912 0 51.679288 8.33688104 60.8795825 9.67376208 54.2221868 16.163119 55.7937848 25.3262379"></polygon>
                        <polygon id="Star-Copy-2" fill="#FFBA08" points="81.8147912 21 73.5857977 25.3262379 75.1573956 16.163119 68.5 9.67376208 77.7002945 8.33688104 81.8147912 0 85.929288 8.33688104 95.1295825 9.67376208 88.4721868 16.163119 90.0437848 25.3262379"></polygon>
                        <polygon id="Star-Copy-3" fill="#FFBA08" points="116.064791 21 107.835798 25.3262379 109.407396 16.163119 102.75 9.67376208 111.950294 8.33688104 116.064791 0 120.179288 8.33688104 129.379582 9.67376208 122.722187 16.163119 124.293785 25.3262379"></polygon>
                        <polygon id="Star-Copy-4" fill="#9B9B9B" points="150.314791 21 142.085798 25.3262379 143.657396 16.163119 137 9.67376208 146.200294 8.33688104 150.314791 0 154.429288 8.33688104 163.629582 9.67376208 156.972187 16.163119 158.543785 25.3262379"></polygon>
                    </g>
                </g>
            </g>
        </g>
    </g>
</svg>